<svg version="1.1" id="Layer_1" xmlns="http://www.w3.org/2000/svg" xmlns:xlink="http://www.w3.org/1999/xlink" x="0px" y="0px" viewBox="0 0 20 20" style="enable-background:new 0 0 20 20;" xml:space="preserve">
<style type="text/css">
	.st0{fill:#FFFFFF;}
</style>
<g>
	<path class="st0" d="M10,4.975L10,4.975c-0.549,0-0.994-0.445-0.994-0.994V1.994C9.006,1.445,9.451,1,10,1h0   c0.549,0,0.994,0.445,0.994,0.994v1.987C10.994,4.53,10.549,4.975,10,4.975z M10.994,18.006v-1.987   c0-0.549-0.445-0.994-0.994-0.994h0c-0.549,0-0.994,0.445-0.994,0.994v1.987C9.006,18.555,9.451,19,10,19h0   C10.549,19,10.994,18.555,10.994,18.006z M16.019,10.994h1.987C18.555,10.994,19,10.549,19,10v0c0-0.549-0.445-0.994-0.994-0.994   h-1.987c-0.549,0-0.994,0.445-0.994,0.994v0C15.025,10.549,15.47,10.994,16.019,10.994z M1.994,10.994h1.987   c0.549,0,0.994-0.445,0.994-0.994v0c0-0.549-0.445-0.994-0.994-0.994H1.994C1.445,9.006,1,9.451,1,10v0   C1,10.549,1.445,10.994,1.994,10.994z M14.959,6.446l1.405-1.405c0.388-0.388,0.388-1.017,0-1.405l0,0   c-0.388-0.388-1.017-0.388-1.405,0l-1.405,1.405c-0.388,0.388-0.388,1.017,0,1.405l0,0C13.942,6.834,14.571,6.834,14.959,6.446z    M5.041,16.364l1.405-1.405c0.388-0.388,0.388-1.017,0-1.405l0,0c-0.388-0.388-1.017-0.388-1.405,0l-1.405,1.405   c-0.388,0.388-0.388,1.017,0,1.405l0,0C4.024,16.752,4.653,16.752,5.041,16.364z M13.554,14.959l1.405,1.405   c0.388,0.388,1.017,0.388,1.405,0l0,0c0.388-0.388,0.388-1.017,0-1.405l-1.405-1.405c-0.388-0.388-1.017-0.388-1.405,0l0,0   C13.166,13.942,13.166,14.571,13.554,14.959z M3.636,5.041l1.405,1.405c0.388,0.388,1.017,0.388,1.405,0l0,0   c0.388-0.388,0.388-1.017,0-1.405L5.041,3.636c-0.388-0.388-1.017-0.388-1.405,0l0,0C3.248,4.024,3.248,4.653,3.636,5.041z    M10,6.083c-2.195,0-3.975,1.779-3.975,3.975S7.805,14.032,10,14.032s3.975-1.779,3.975-3.975S12.195,6.083,10,6.083z"/>
</g>
</svg>